<mxfile host="app.diagrams.net" modified="2024-03-18T20:34:57.215Z" agent="Mozilla/5.0 (Windows NT 10.0; Win64; x64) AppleWebKit/537.36 (KHTML, like Gecko) Chrome/122.0.0.0 Safari/537.36" etag="KCT8R3UnAsxkouniafM9" version="24.0.7" type="device">
  <diagram name="Página-1" id="189CYVjJppvcOrpcuMPq">
    <mxGraphModel dx="1257" dy="634" grid="1" gridSize="10" guides="1" tooltips="1" connect="1" arrows="1" fold="1" page="1" pageScale="1" pageWidth="827" pageHeight="1169" math="0" shadow="0">
      <root>
        <mxCell id="0" />
        <mxCell id="1" parent="0" />
        <mxCell id="ZeeQsp0HOao5xjux4apx-1" value="tipo de paciente" style="points=[[0.145,0.145,0],[0.5,0,0],[0.855,0.145,0],[1,0.5,0],[0.855,0.855,0],[0.5,1,0],[0.145,0.855,0],[0,0.5,0]];shape=mxgraph.bpmn.event;html=1;verticalLabelPosition=bottom;labelBackgroundColor=#ffffff;verticalAlign=top;align=center;perimeter=ellipsePerimeter;outlineConnect=0;aspect=fixed;outline=standard;symbol=general;" vertex="1" parent="1">
          <mxGeometry x="30" y="190" width="50" height="50" as="geometry" />
        </mxCell>
        <mxCell id="ZeeQsp0HOao5xjux4apx-3" style="edgeStyle=orthogonalEdgeStyle;rounded=0;orthogonalLoop=1;jettySize=auto;html=1;exitX=1;exitY=0.5;exitDx=0;exitDy=0;exitPerimeter=0;entryX=0;entryY=0.5;entryDx=0;entryDy=0;entryPerimeter=0;" edge="1" parent="1" source="ZeeQsp0HOao5xjux4apx-1" target="ZeeQsp0HOao5xjux4apx-7">
          <mxGeometry relative="1" as="geometry">
            <mxPoint x="110" y="215" as="targetPoint" />
          </mxGeometry>
        </mxCell>
        <mxCell id="ZeeQsp0HOao5xjux4apx-4" value="&lt;strong style=&quot;color: rgb(85, 85, 85); font-family: Lato; font-size: 14px; text-align: start; background-color: rgb(255, 255, 255);&quot;&gt;Emergência&lt;/strong&gt;" style="points=[[0.25,0,0],[0.5,0,0],[0.75,0,0],[1,0.25,0],[1,0.5,0],[1,0.75,0],[0.75,1,0],[0.5,1,0],[0.25,1,0],[0,0.75,0],[0,0.5,0],[0,0.25,0]];shape=mxgraph.bpmn.task;whiteSpace=wrap;rectStyle=rounded;size=10;html=1;container=1;expand=0;collapsible=0;taskMarker=abstract;isLoopSub=1;" vertex="1" parent="1">
          <mxGeometry x="220" y="40" width="120" height="80" as="geometry" />
        </mxCell>
        <mxCell id="ZeeQsp0HOao5xjux4apx-5" value="&lt;strong style=&quot;color: rgb(85, 85, 85); font-family: Lato; font-size: 14px; text-align: start; background-color: rgb(255, 255, 255);&quot;&gt;Urgência&lt;/strong&gt;" style="points=[[0.25,0,0],[0.5,0,0],[0.75,0,0],[1,0.25,0],[1,0.5,0],[1,0.75,0],[0.75,1,0],[0.5,1,0],[0.25,1,0],[0,0.75,0],[0,0.5,0],[0,0.25,0]];shape=mxgraph.bpmn.task;whiteSpace=wrap;rectStyle=rounded;size=10;html=1;container=1;expand=0;collapsible=0;taskMarker=abstract;isLoopSub=1;" vertex="1" parent="1">
          <mxGeometry x="220" y="175" width="120" height="80" as="geometry" />
        </mxCell>
        <mxCell id="ZeeQsp0HOao5xjux4apx-7" value="" style="points=[[0.25,0.25,0],[0.5,0,0],[0.75,0.25,0],[1,0.5,0],[0.75,0.75,0],[0.5,1,0],[0.25,0.75,0],[0,0.5,0]];shape=mxgraph.bpmn.gateway2;html=1;verticalLabelPosition=bottom;labelBackgroundColor=#ffffff;verticalAlign=top;align=center;perimeter=rhombusPerimeter;outlineConnect=0;outline=none;symbol=none;gwType=exclusive;" vertex="1" parent="1">
          <mxGeometry x="120" y="190" width="50" height="50" as="geometry" />
        </mxCell>
        <mxCell id="ZeeQsp0HOao5xjux4apx-8" style="edgeStyle=orthogonalEdgeStyle;rounded=0;orthogonalLoop=1;jettySize=auto;html=1;exitX=1;exitY=0.5;exitDx=0;exitDy=0;exitPerimeter=0;entryX=0;entryY=0.5;entryDx=0;entryDy=0;entryPerimeter=0;fillColor=#fff2cc;strokeColor=#d6b656;strokeWidth=2;" edge="1" parent="1" source="ZeeQsp0HOao5xjux4apx-7" target="ZeeQsp0HOao5xjux4apx-5">
          <mxGeometry relative="1" as="geometry" />
        </mxCell>
        <mxCell id="ZeeQsp0HOao5xjux4apx-9" style="edgeStyle=orthogonalEdgeStyle;rounded=0;orthogonalLoop=1;jettySize=auto;html=1;entryX=0;entryY=0.5;entryDx=0;entryDy=0;entryPerimeter=0;exitX=0.5;exitY=0;exitDx=0;exitDy=0;exitPerimeter=0;fillColor=#f8cecc;strokeColor=#b85450;strokeWidth=2;" edge="1" parent="1" source="ZeeQsp0HOao5xjux4apx-7" target="ZeeQsp0HOao5xjux4apx-4">
          <mxGeometry relative="1" as="geometry" />
        </mxCell>
        <mxCell id="ZeeQsp0HOao5xjux4apx-10" style="edgeStyle=orthogonalEdgeStyle;rounded=0;orthogonalLoop=1;jettySize=auto;html=1;exitX=0.5;exitY=1;exitDx=0;exitDy=0;exitPerimeter=0;entryX=0;entryY=0.5;entryDx=0;entryDy=0;entryPerimeter=0;fillColor=#d5e8d4;strokeColor=#82b366;strokeWidth=2;" edge="1" parent="1" source="ZeeQsp0HOao5xjux4apx-7" target="ZeeQsp0HOao5xjux4apx-11">
          <mxGeometry relative="1" as="geometry">
            <mxPoint x="220" y="350" as="targetPoint" />
          </mxGeometry>
        </mxCell>
        <mxCell id="ZeeQsp0HOao5xjux4apx-11" value="&lt;strong style=&quot;color: rgb(85, 85, 85); font-family: Lato; font-size: 14px; text-align: start; background-color: rgb(255, 255, 255);&quot;&gt;Procedimento eletivo&lt;/strong&gt;" style="points=[[0.25,0,0],[0.5,0,0],[0.75,0,0],[1,0.25,0],[1,0.5,0],[1,0.75,0],[0.75,1,0],[0.5,1,0],[0.25,1,0],[0,0.75,0],[0,0.5,0],[0,0.25,0]];shape=mxgraph.bpmn.task;whiteSpace=wrap;rectStyle=rounded;size=10;html=1;container=1;expand=0;collapsible=0;taskMarker=abstract;" vertex="1" parent="1">
          <mxGeometry x="220" y="324" width="120" height="80" as="geometry" />
        </mxCell>
        <mxCell id="ZeeQsp0HOao5xjux4apx-12" value="" style="points=[[0.25,0.25,0],[0.5,0,0],[0.75,0.25,0],[1,0.5,0],[0.75,0.75,0],[0.5,1,0],[0.25,0.75,0],[0,0.5,0]];shape=mxgraph.bpmn.gateway2;html=1;verticalLabelPosition=bottom;labelBackgroundColor=#ffffff;verticalAlign=top;align=center;perimeter=rhombusPerimeter;outlineConnect=0;outline=end;symbol=general;" vertex="1" parent="1">
          <mxGeometry x="389" y="339" width="50" height="50" as="geometry" />
        </mxCell>
        <mxCell id="ZeeQsp0HOao5xjux4apx-13" style="edgeStyle=orthogonalEdgeStyle;rounded=0;orthogonalLoop=1;jettySize=auto;html=1;exitX=1;exitY=0.5;exitDx=0;exitDy=0;exitPerimeter=0;entryX=0;entryY=0.5;entryDx=0;entryDy=0;entryPerimeter=0;" edge="1" parent="1" source="ZeeQsp0HOao5xjux4apx-11" target="ZeeQsp0HOao5xjux4apx-12">
          <mxGeometry relative="1" as="geometry" />
        </mxCell>
        <mxCell id="ZeeQsp0HOao5xjux4apx-14" value="&amp;nbsp;endoscopia" style="points=[[0.25,0,0],[0.5,0,0],[0.75,0,0],[1,0.25,0],[1,0.5,0],[1,0.75,0],[0.75,1,0],[0.5,1,0],[0.25,1,0],[0,0.75,0],[0,0.5,0],[0,0.25,0]];shape=mxgraph.bpmn.task;whiteSpace=wrap;rectStyle=rounded;size=10;html=1;container=1;expand=0;collapsible=0;taskMarker=abstract;" vertex="1" parent="1">
          <mxGeometry x="520" y="230" width="120" height="80" as="geometry" />
        </mxCell>
        <mxCell id="ZeeQsp0HOao5xjux4apx-15" value="&amp;nbsp;eletrocardiograma" style="points=[[0.25,0,0],[0.5,0,0],[0.75,0,0],[1,0.25,0],[1,0.5,0],[1,0.75,0],[0.75,1,0],[0.5,1,0],[0.25,1,0],[0,0.75,0],[0,0.5,0],[0,0.25,0]];shape=mxgraph.bpmn.task;whiteSpace=wrap;rectStyle=rounded;size=10;html=1;container=1;expand=0;collapsible=0;taskMarker=abstract;" vertex="1" parent="1">
          <mxGeometry x="520" y="324" width="120" height="80" as="geometry" />
        </mxCell>
        <mxCell id="ZeeQsp0HOao5xjux4apx-16" value="&amp;nbsp;obstetrícia&amp;nbsp;" style="points=[[0.25,0,0],[0.5,0,0],[0.75,0,0],[1,0.25,0],[1,0.5,0],[1,0.75,0],[0.75,1,0],[0.5,1,0],[0.25,1,0],[0,0.75,0],[0,0.5,0],[0,0.25,0]];shape=mxgraph.bpmn.task;whiteSpace=wrap;rectStyle=rounded;size=10;html=1;container=1;expand=0;collapsible=0;taskMarker=abstract;" vertex="1" parent="1">
          <mxGeometry x="520" y="420" width="120" height="80" as="geometry" />
        </mxCell>
        <mxCell id="ZeeQsp0HOao5xjux4apx-17" style="edgeStyle=orthogonalEdgeStyle;rounded=0;orthogonalLoop=1;jettySize=auto;html=1;entryX=0;entryY=0.5;entryDx=0;entryDy=0;entryPerimeter=0;exitX=0.5;exitY=0;exitDx=0;exitDy=0;exitPerimeter=0;" edge="1" parent="1" source="ZeeQsp0HOao5xjux4apx-12" target="ZeeQsp0HOao5xjux4apx-14">
          <mxGeometry relative="1" as="geometry" />
        </mxCell>
        <mxCell id="ZeeQsp0HOao5xjux4apx-18" style="edgeStyle=orthogonalEdgeStyle;rounded=0;orthogonalLoop=1;jettySize=auto;html=1;exitX=1;exitY=0.5;exitDx=0;exitDy=0;exitPerimeter=0;entryX=0;entryY=0.5;entryDx=0;entryDy=0;entryPerimeter=0;" edge="1" parent="1" source="ZeeQsp0HOao5xjux4apx-12" target="ZeeQsp0HOao5xjux4apx-15">
          <mxGeometry relative="1" as="geometry" />
        </mxCell>
        <mxCell id="ZeeQsp0HOao5xjux4apx-19" style="edgeStyle=orthogonalEdgeStyle;rounded=0;orthogonalLoop=1;jettySize=auto;html=1;entryX=0;entryY=0.5;entryDx=0;entryDy=0;entryPerimeter=0;exitX=0.5;exitY=1;exitDx=0;exitDy=0;exitPerimeter=0;" edge="1" parent="1" source="ZeeQsp0HOao5xjux4apx-12" target="ZeeQsp0HOao5xjux4apx-16">
          <mxGeometry relative="1" as="geometry" />
        </mxCell>
        <mxCell id="ZeeQsp0HOao5xjux4apx-20" value="" style="points=[[0.25,0.25,0],[0.5,0,0],[0.75,0.25,0],[1,0.5,0],[0.75,0.75,0],[0.5,1,0],[0.25,0.75,0],[0,0.5,0]];shape=mxgraph.bpmn.gateway2;html=1;verticalLabelPosition=bottom;labelBackgroundColor=#ffffff;verticalAlign=top;align=center;perimeter=rhombusPerimeter;outlineConnect=0;outline=none;symbol=none;" vertex="1" parent="1">
          <mxGeometry x="730" y="190" width="50" height="50" as="geometry" />
        </mxCell>
        <mxCell id="ZeeQsp0HOao5xjux4apx-21" value="FIM" style="points=[[0.145,0.145,0],[0.5,0,0],[0.855,0.145,0],[1,0.5,0],[0.855,0.855,0],[0.5,1,0],[0.145,0.855,0],[0,0.5,0]];shape=mxgraph.bpmn.event;html=1;verticalLabelPosition=bottom;labelBackgroundColor=#ffffff;verticalAlign=top;align=center;perimeter=ellipsePerimeter;outlineConnect=0;aspect=fixed;outline=end;symbol=terminate2;" vertex="1" parent="1">
          <mxGeometry x="870" y="190" width="50" height="50" as="geometry" />
        </mxCell>
        <mxCell id="ZeeQsp0HOao5xjux4apx-22" style="edgeStyle=orthogonalEdgeStyle;rounded=0;orthogonalLoop=1;jettySize=auto;html=1;entryX=0.5;entryY=1;entryDx=0;entryDy=0;entryPerimeter=0;" edge="1" parent="1" source="ZeeQsp0HOao5xjux4apx-16" target="ZeeQsp0HOao5xjux4apx-20">
          <mxGeometry relative="1" as="geometry" />
        </mxCell>
        <mxCell id="ZeeQsp0HOao5xjux4apx-23" style="edgeStyle=orthogonalEdgeStyle;rounded=0;orthogonalLoop=1;jettySize=auto;html=1;entryX=0.25;entryY=0.75;entryDx=0;entryDy=0;entryPerimeter=0;" edge="1" parent="1" source="ZeeQsp0HOao5xjux4apx-15" target="ZeeQsp0HOao5xjux4apx-20">
          <mxGeometry relative="1" as="geometry" />
        </mxCell>
        <mxCell id="ZeeQsp0HOao5xjux4apx-24" style="edgeStyle=orthogonalEdgeStyle;rounded=0;orthogonalLoop=1;jettySize=auto;html=1;entryX=0;entryY=0.5;entryDx=0;entryDy=0;entryPerimeter=0;" edge="1" parent="1" source="ZeeQsp0HOao5xjux4apx-14" target="ZeeQsp0HOao5xjux4apx-20">
          <mxGeometry relative="1" as="geometry" />
        </mxCell>
        <mxCell id="ZeeQsp0HOao5xjux4apx-25" style="edgeStyle=orthogonalEdgeStyle;rounded=0;orthogonalLoop=1;jettySize=auto;html=1;entryX=0;entryY=0.5;entryDx=0;entryDy=0;entryPerimeter=0;" edge="1" parent="1" source="ZeeQsp0HOao5xjux4apx-20" target="ZeeQsp0HOao5xjux4apx-21">
          <mxGeometry relative="1" as="geometry" />
        </mxCell>
      </root>
    </mxGraphModel>
  </diagram>
</mxfile>
